<svg version="1.1" id="icons" xmlns="http://www.w3.org/2000/svg" x="0" y="0" viewBox="0 0 256 256" style="enable-background:new 0 0 256 256" xml:space="preserve"><style>.st0{fill:none;stroke:#3d5a80;stroke-width:7;stroke-linecap:round;stroke-miterlimit:10}</style><path class="st0" d="M179.44 41.86c-5.75 2.95-8.7 5.89-11.64 11.64-.58 1.14-2.2 1.14-2.78 0-2.95-5.75-5.89-8.7-11.64-11.64-1.14-.58-1.14-2.2 0-2.78 5.75-2.95 8.7-5.89 11.64-11.64.58-1.14 2.2-1.14 2.78 0 2.95 5.75 5.89 8.7 11.64 11.64 1.13.58 1.13 2.19 0 2.78zM227.51 74.54c-7.6 3.89-11.49 7.79-15.39 15.39-.77 1.5-2.9 1.5-3.67 0-3.89-7.6-7.79-11.49-15.39-15.39-1.5-.77-1.5-2.9 0-3.67 7.6-3.89 11.49-7.79 15.39-15.39.77-1.5 2.9-1.5 3.67 0 3.89 7.6 7.79 11.49 15.39 15.39 1.5.77 1.5 2.9 0 3.67zM167.53 95.83c-3.7 1.9-5.6 3.79-7.49 7.49-.38.73-1.41.73-1.79 0-1.9-3.7-3.79-5.6-7.49-7.49-.73-.38-.73-1.41 0-1.79 3.7-1.9 5.6-3.79 7.49-7.49.38-.73 1.41-.73 1.79 0 1.9 3.7 3.79 5.6 7.49 7.49.73.38.73 1.42 0 1.79zM105.15 149.42c-27.09.26-48.18.46-49.35.46-16.31 0-29.41-13.72-28.38-30.25.88-14.16 12.4-25.69 26.57-26.57 16.53-1.03 30.25 12.07 30.25 28.38 0 1.11 1.21 1.5 1.21 1.5h19.69M147.14 122.94h81.49v0c.25 13.93-10.89 25.39-24.82 25.52-18.15.18-43.67.43-68.43.66"/><circle class="st0" cx="56.14" cy="120.94" r="13"/><path class="st0" d="M107.2 200.98c0 21.64 24.17 37.63 46.99 22.45 1.54-1.03 2.87-2.36 3.9-3.9 15.18-22.82-.81-46.99-22.45-46.99-1.11 0-1.5-1.21-1.5-1.21V28.15h0c-13.93-.25-25.39 10.89-25.52 24.81-.47 47.47-1.42 145.45-1.42 148.02z"/><circle class="st0" cx="136.14" cy="200.94" r="13"/><path class="st0" d="m120.41 133.77 1.01 1"/></svg>